# xmcd
#
# Track frame offsets: 
#        150
#        20480
#        37486
#
# Disc length: 736 seconds
#
# Revision: 0
# Processed by: cddbd v1.5.2PL0 Copyright (c) Steve Scherf et al.
# Submitted via: ExactAudioCopy v1.1
#
DISCID=2402de03
DTITLE=宮野真守 - HOW CLOSE YOU ARE
DYEAR=2016
DGENRE=
TTITLE0=HOW CLOSE YOU ARE
TTITLE1=BLACK OR WHITE
TTITLE2=Crazy Wonder Night
EXTD=
EXTT0=
EXTT1=
EXTT2=
PLAYORDER=
